<?xml version="1.0" encoding="UTF-8" standalone="no"?>
<svg
   viewBox="0 0 500 500"
   width="500px"
   height="500px"
   version="1.1"
   id="svg3"
   sodipodi:docname="logo-ready.svg"
   inkscape:version="1.4.2 (ebf0e940d0, 2025-05-08)"
   xmlns:inkscape="http://www.inkscape.org/namespaces/inkscape"
   xmlns:sodipodi="http://sodipodi.sourceforge.net/DTD/sodipodi-0.dtd"
   xmlns="http://www.w3.org/2000/svg"
   xmlns:svg="http://www.w3.org/2000/svg"
   xmlns:bx="https://boxy-svg.com">
  <sodipodi:namedview
     id="namedview3"
     pagecolor="#ffffff"
     bordercolor="#000000"
     borderopacity="0.25"
     inkscape:showpageshadow="2"
     inkscape:pageopacity="0.0"
     inkscape:pagecheckerboard="0"
     inkscape:deskcolor="#d1d1d1"
     inkscape:zoom="1.5810908"
     inkscape:cx="201.75945"
     inkscape:cy="278.28889"
     inkscape:window-width="2560"
     inkscape:window-height="1371"
     inkscape:window-x="0"
     inkscape:window-y="0"
     inkscape:window-maximized="1"
     inkscape:current-layer="svg3" />
  <g
     id="g5"
     transform="matrix(1.1146048,0,0,1.1146048,-28.651199,-28.651197)">
    <path
       d="M 44.605099,198.17711 Q 0.65379118,-20.241869 211.7876,50.897831 l 133.34827,44.930303 q 211.13457,71.138996 43.95206,218.418296 l -105.58918,93.0187 Q 116.31549,554.54507 72.364179,336.1261 Z"
       bx:shape="triangle 1226.84 387.083 586.325 507.753 0.5 0.38 1@d90b8b28"
       style="stroke-width:8.226"
       id="path1" />
    <g
       id="g3"
       transform="translate(5.8707112,2.6441078)">
      <g
         id="g4"
         transform="translate(-0.44722719,0.44722719)">
        <path
           d="m 141.57376,276.0098 q -4.72,0 -9.48,-2.59 -4.76,-2.58 -8.87,-6.85 -4.11,-4.26 -7.03,-9.36 -2.91,-5.1 -4.02,-10.12 -1.1,-5.02 0.38,-9.13 1.48,-4.11 6.16,-9.13 4.67,-5.02 11.35,-10.12 6.67,-5.1 13.97,-9.36 7.31,-4.27 13.96,-6.85 6.66,-2.59 11.38,-2.59 4.56,0 6.34,2.66 1.77,2.67 1.75,6.7 -0.02,4.03 -1.12,8.45 -16.73,4.87 -27.23,9.74 -10.5,4.87 -16.09,10.2 2.32,5.93 10.03,12.55 7.71,6.62 21.49,11.8 -2.55,2.89 -6.18,6.16 -3.63,3.27 -7.93,5.56 -4.3,2.28 -8.86,2.28 z m 50.59,2.13 q -7.91,0 -11.7,-4.64 -3.79,-4.64 -1.36,-14.38 1.21,-4.87 3.7,-10.28 2.49,-5.4 5.24,-10.65 2.76,-5.25 4.89,-9.51 2.13,-4.27 2.77,-6.85 0.65,-2.59 -0.13,-3.73 -0.79,-1.14 -2.31,-1.14 -1.52,0 -3.29,0.99 -1.77,0.98 -3.33,2.96 l -1.1,-0.45 q 1.86,-6.24 6.16,-10.66 4.29,-4.41 9.66,-6.69 5.36,-2.29 10.23,-2.29 3.96,0 7.21,1.6 3.26,1.6 4.65,4.87 1.39,3.27 -0.01,8.3 -0.99,3.34 -3.27,8.22 -2.28,4.87 -5.11,10.42 -2.83,5.56 -5.19,10.73 -2.35,5.18 -3.34,9.13 -0.84,3.35 -0.34,5.33 0.5,1.98 2.93,1.98 2.59,0 7.53,-2.74 4.95,-2.74 10.5,-7.92 1.21,-8.52 2.84,-15.06 4.18,-16.75 10.98,-24.2 6.81,-7.46 14.27,-7.46 5.48,0 6.54,3.65 1.07,3.65 -0.45,9.74 -2.23,8.98 -7.25,16.9 -5.02,7.91 -10.31,12.63 -1.4,6.85 0.16,10.65 1.57,3.81 5.07,3.81 3.5,0 8.21,-3.96 4.72,-3.96 9.51,-12.17 4.79,-8.22 8.39,-20.86 2.7,-10.19 2.35,-14.91 l 0.19,-0.76 q 3.01,-3.5 8.27,-6.01 5.27,-2.52 9.99,-2.52 3.35,0 5.69,1.91 2.34,1.9 2.74,7 0.41,5.1 -2.44,14.69 -3.8,13.39 -10.28,23.51 -6.48,10.12 -14.35,16.97 -7.87,6.85 -15.9,10.35 -8.02,3.5 -15.02,3.5 -7.92,0 -13.38,-4.34 -5.47,-4.33 -6.84,-12.25 -8.63,7.15 -17.04,11.87 -8.4,4.72 -16.93,4.72 z"
           style="fill:#ffffff;stroke-width:8.226px"
           id="path2" />
        <path
           d="m 271.88258,293.90753 q 0.07,-2.71218 0.49,-4.83863 1.29,-6.59582 6.12,-11.82919 h 98.77 q 0.42,2.52118 -0.11,5.23337 -1.14,5.81909 -6.5,11.43445 z"
           style="fill:#8e51ff;stroke-width:9.28236px"
           id="path3" />
      </g>
    </g>
  </g>
  <defs
     id="defs3">
    <bx:export>
      <bx:file
         format="webp"
         href="#object-1">
        <bx:variant
           scale="2"
           suffix="@2x" />
      </bx:file>
      <bx:file
         format="svg"
         normalization="{&quot;embedExternalFonts&quot;:true}"
         path="logo-ready.svg" />
    </bx:export>
  </defs>
</svg>
